<svg xmlns="http://www.w3.org/2000/svg" width="22" height="21" viewBox="0 0 22 21">
    <g fill="none" fill-rule="evenodd">
        <path d="M-3-4h28v28H-3z"/>
        <path fill="#3C3C3C" fill-rule="nonzero" d="M.754 10.564c0-.955.377-1.846 1.006-2.482.126-.191.126-.446 0-.573a.379.379 0 0 0-.503 0A4.313 4.313 0 0 0 0 10.564c0 1.145.44 2.227 1.257 3.054.07.067.157.111.252.127a.474.474 0 0 0 .251-.127.39.39 0 0 0 0-.509c-.691-.7-1.006-1.59-1.006-2.545zm2.263 2.29a.474.474 0 0 0 .252-.127.39.39 0 0 0 0-.509 2.44 2.44 0 0 1 0-3.436.39.39 0 0 0 0-.51.379.379 0 0 0-.503 0c-1.195 1.21-1.195 3.246 0 4.455a.474.474 0 0 0 .251.128v-.001zm17.726-5.345a.379.379 0 0 0-.503 0 .39.39 0 0 0 0 .51c.691.7 1.006 1.59 1.006 2.481 0 .955-.377 1.845-1.006 2.482a.39.39 0 0 0 0 .509.474.474 0 0 0 .251.127.474.474 0 0 0 .252-.127A4.313 4.313 0 0 0 22 10.436c0-1.018-.44-2.1-1.257-2.927zm-2.074.764a.39.39 0 0 0 0 .509 2.44 2.44 0 0 1 0 3.436.39.39 0 0 0 0 .51.474.474 0 0 0 .251.127.474.474 0 0 0 .251-.128c1.195-1.209 1.195-3.245 0-4.454-.125-.191-.314-.191-.502 0zm-1.446 2.482v-3.31c0-2.545-1.697-4.2-3.143-4.9a9.895 9.895 0 0 0-1.257-.445v-.255A1.836 1.836 0 0 0 11 0a1.836 1.836 0 0 0-1.823 1.845V2.1c-.377.127-.817.255-1.194.445-1.634.764-3.206 2.546-3.269 4.9v3.31c0 2.354-.817 4.39-2.451 6.045-.126.127-.126.255-.063.382s.126.254.314.254l3.457.637c.629.127 1.258.19 1.823.254.629 1.273 1.886 2.1 3.269 2.1 1.383 0 2.64-.827 3.268-2.1.566-.063 1.132-.19 1.823-.254l3.457-.637c.126 0 .252-.127.315-.254s0-.255-.063-.382c-1.76-1.718-2.64-3.755-2.64-6.045zm-7.354-8.91c0-.636.502-1.081 1.131-1.081s1.069.509 1.069 1.081v.064a6.386 6.386 0 0 0-2.2 0v-.064zM11.063 19.6c-.943 0-1.823-.445-2.326-1.21.126 0 .314 0 .44.065h.314c1.069.063 2.075.063 3.143 0h.44c.126 0 .252 0 .377-.064a2.965 2.965 0 0 1-2.388 1.209zm2.451-14.89c-.063.19-.314.254-.503.19-1.257-.573-2.765-.573-3.96 0-.628.318-1.76 1.145-1.76 2.545 0 .191-.188.382-.377.382-.188 0-.377-.19-.377-.382 0-1.718 1.383-2.8 2.2-3.181 1.383-.637 3.143-.637 4.589 0 .188 0 .314.254.188.445v.001z"/>
    </g>
</svg>
