<svg xmlns="http://www.w3.org/2000/svg" width="24" height="24" viewBox="0 0 24 24">
    <g fill="none" fill-rule="evenodd">
        <path fill="#253B56" d="M0 0h24v24H0z" opacity=".009"/>
        <path fill="#3C3C3C" fill-rule="nonzero" d="M17.864 17.69L14.7 14.511a5.059 5.059 0 0 0 1.26-3.33C15.96 8.323 13.551 6 10.591 6c-2.959 0-5.366 2.324-5.366 5.181s2.407 5.182 5.366 5.182c1.111 0 2.17-.324 3.075-.938l3.188 3.201a.707.707 0 0 0 .504.207.71.71 0 0 0 .485-.188.66.66 0 0 0 .02-.956zM10.592 7.351c2.188 0 3.967 1.718 3.967 3.83 0 2.111-1.78 3.83-3.967 3.83-2.187 0-3.966-1.719-3.966-3.83 0-2.112 1.779-3.83 3.966-3.83z"/>
    </g>
</svg>
