<svg xmlns="http://www.w3.org/2000/svg" width="19" height="16" viewBox="0 0 19 16">
    <g fill="none" fill-rule="evenodd">
        <path d="M-3-4h24v24H-3z"/>
        <path fill="#3C3C3C" fill-rule="nonzero" d="M9.5 0C14.764 0 19 3.86 19 7.056c0 1.609-1.001 2.528-2.456 3.057v2.152C16.544 13.886 13.391 16 9.5 16c-3.89 0-7.043-2.114-7.044-3.735v-2.15C1 9.584 0 8.664 0 7.056 0 3.861 4.238 0 9.5 0zm7.044 8.683c.751-.37 1.16-.892 1.16-1.626 0-2.26-3.523-5.744-8.204-5.744-4.681 0-8.204 3.484-8.204 5.743 0 .735.41 1.257 1.16 1.627l.002-.419c.135-.376 1.426-.706 3.295-.895-.008.114-.015.228-.015.343 0 .564.092 1.102.252 1.599.012.035.021.071.033.107.179.512.437.976.753 1.374.686.858 1.652 1.397 2.724 1.397 1.071 0 2.038-.539 2.724-1.397.316-.398.574-.862.753-1.375.012-.035.022-.071.033-.106a5.197 5.197 0 0 0 .252-1.599c0-.115-.007-.23-.015-.343 1.869.19 3.152.515 3.287.892l.01.422zM9.501 3.94c1.695 0 3.07 1.69 3.07 3.774 0 2.085-1.375 3.775-3.07 3.775-1.696 0-3.07-1.69-3.07-3.775 0-2.084 1.374-3.774 3.07-3.774z"/>
    </g>
</svg>
