<svg xmlns="http://www.w3.org/2000/svg" width="20" height="20" viewBox="0 0 20 20">
    <g fill="none" fill-rule="evenodd">
        <path d="M0 0h20v20H0z"/>
        <path fill="#3C3C3C" fill-rule="nonzero" d="M10.003 10.548c2.26 0 4.093-2.166 4.093-4.836 0-3.705-1.833-4.837-4.092-4.837-2.26 0-4.092 1.132-4.092 4.837 0 2.67 1.831 4.836 4.091 4.836zm9.037 7.119l-2.064-4.696a1.042 1.042 0 0 0-.467-.502l-3.204-1.684a.205.205 0 0 0-.22.018 5.044 5.044 0 0 1-3.082 1.059 5.044 5.044 0 0 1-3.08-1.059.205.205 0 0 0-.22-.018l-3.205 1.684c-.207.11-.372.287-.466.502L.967 17.667a1.05 1.05 0 0 0 .078.992c.192.297.515.473.866.473h16.186c.35 0 .675-.176.865-.474.191-.296.22-.666.078-.991z"/>
    </g>
</svg>
