<svg xmlns="http://www.w3.org/2000/svg" width="18" height="22" viewBox="0 0 18 22">
    <path fill="#3C3C3C" fill-rule="nonzero" d="M4.478 14.113c0 .405-.295.645-.772.645-.13 0-.224-.005-.3-.023v-1.168a1.56 1.56 0 0 1 .37-.036c.448 0 .702.218.702.582zm2.773-.57c.772 0 1.255.435 1.25 1.257 0 .945-.531 1.391-1.345 1.385-.112 0-.235 0-.312-.018V13.58a1.86 1.86 0 0 1 .407-.035zM12.4 0l5.569 5.526V19.6a2.342 2.342 0 0 1-2.344 2.335H3.555a2.342 2.342 0 0 1-2.345-2.335v-1.046H.982a.943.943 0 0 1-.945-.94v-5.706c0-.52.423-.941.945-.941h.228V2.335A2.343 2.343 0 0 1 3.555 0h8.847zM2.516 12.938v3.905h.89v-1.415c.083.011.189.017.307.017.53 0 .984-.129 1.29-.416.237-.223.366-.552.366-.94 0-.387-.17-.716-.424-.915-.266-.212-.66-.317-1.215-.317-.548 0-.937.035-1.214.081zm13.11 7.568c.501 0 .908-.406.908-.905L16.5 6.092l-3.009.009a1.623 1.623 0 0 1-1.625-1.62V1.423l-8.31.008c-.5 0-.908.406-.908.904v8.633H13.9c.521 0 .944.42.944.94v5.706c0 .52-.423.941-.944.941H2.647v1.046c0 .5.407.905.908.905h12.07zm-9.683-3.681c.224.03.554.059 1.02.059.778 0 1.415-.165 1.833-.51.383-.324.66-.846.66-1.603 0-.7-.259-1.186-.671-1.492-.384-.287-.873-.422-1.628-.422-.454 0-.884.03-1.214.081v3.887zm6.434-2.301h-1.427v-.904h1.527v-.734h-2.429v3.957h.902v-1.591h1.427v-.728z"/>
</svg>
