<svg xmlns="http://www.w3.org/2000/svg" width="18" height="21" viewBox="0 0 18 21">
    <g fill="none" fill-rule="evenodd">
        <path d="M-3-2h24v24H-3z"/>
        <path d="M-3-2h24v24H-3z"/>
        <g fill="#3C3C3C">
            <path fill-rule="nonzero" d="M16.864 4.006l-2.87-2.87C13.369.511 12.134 0 11.25 0H1.607C.723 0 0 .723 0 1.607v17.357c0 .884.723 1.607 1.607 1.607h14.786c.884 0 1.607-.723 1.607-1.607V6.75c0-.884-.511-2.119-1.136-2.744zm-.91.91c.063.062.126.14.187.227h-3.284V1.859c.087.061.165.124.227.187l2.87 2.87zm.76 14.048a.326.326 0 0 1-.321.322H1.607a.326.326 0 0 1-.321-.322V1.607c0-.174.147-.321.321-.321h9.643c.097 0 .206.012.321.034v5.109h5.11c.021.115.033.224.033.321v12.214z"/>
            <path d="M4 9h9v1H4zM4 12h9v1H4zM4 15h6v1H4z"/>
        </g>
    </g>
</svg>
