<svg xmlns="http://www.w3.org/2000/svg" width="16" height="20" viewBox="0 0 16 20">
    <g fill="none" fill-rule="evenodd">
        <path d="M-4-2h24v24H-4z"/>
        <path fill="#4A4A4A" fill-rule="nonzero" d="M3.22 20A3.25 3.25 0 0 1 0 16.74V3.23A3.26 3.26 0 0 1 3.22 0H10.53a.9.9 0 0 1 .65.27s4.24 4.22 4.51 4.5a1 1 0 0 1 .27.64v11.33A3.25 3.25 0 0 1 12.7 20H3.22zm0-18A1.26 1.26 0 0 0 2 3.23v13.51c0 .68.54 1.238 1.22 1.26h9.48a1.25 1.25 0 0 0 1.3-1.26V6h-4V2H3.22zM4 8h8v1H4V8zm0 3h8v1H4v-1zm0 3h5v1H4v-1z"/>
    </g>
</svg>
