<svg xmlns="http://www.w3.org/2000/svg" width="24" height="24" viewBox="0 0 24 24">
    <g fill="none" fill-rule="evenodd">
        <path fill="#000" fill-opacity="0" d="M0 0h24v24H0z"/>
        <path fill="#4A4A4A" fill-rule="nonzero" d="M13.268 24a1.105 1.105 0 0 1-.636-.192l-7.116-4.8A1.116 1.116 0 0 1 5 18.072V.984a1.2 1.2 0 0 1 .18-.48c.172-.27.452-.454.768-.504H18.32a1.2 1.2 0 0 1 1.14 1.2v16.896a1.2 1.2 0 0 1-1.14 1.128h-3.948v3.6A1.2 1.2 0 0 1 13.268 24zm-1.2-3.252V6.48l-4.8-3.228v14.232l4.8 3.264zm5.088-3.768V2.256H9.848l4.008 2.676c.322.208.516.565.516.948v11.076l2.784.024zm-6.888-2.58a.6.6 0 0 1-.6-.6v-1.2a.6.6 0 0 1 .6-.6.588.588 0 0 1 .588.6v1.2a.588.588 0 0 1-.588.6z"/>
    </g>
</svg>
