<svg xmlns="http://www.w3.org/2000/svg" width="23" height="23" viewBox="0 0 23 23">
    <g fill="none" fill-rule="evenodd">
        <path d="M-3-3h28v28H-3z"/>
        <g fill-rule="nonzero">
            <path fill="#FFF" d="M5.603 3.774c.176-.648.59-1.12 1.12-1.592C7.903 1.121 9.26.531 10.793.354c.058 0 .117 0 .176-.06h1.062c.354.06.648.119 1.002.178 1.475.354 2.713 1.002 3.716 2.123.354.413.648.884.707 1.415 0 .295 0 .59-.177.885-1.828-.826-3.774-1.357-5.779-1.357s-3.951.472-5.78 1.357c-.235-.354-.235-.767-.117-1.12zm4.835 14.92c.118-.412.177-.825.295-1.238.06-.177.118-.235.295-.235h1.062c.118 0 .177.117.236.235.118.472.177.885.295 1.298v.177l-1.062 1.946h-.118c-.354-.59-.649-1.239-1.003-1.887-.059-.06-.059-.118 0-.295zm.295-3.42h1.593c.177 0 .295.06.236.236-.06.472-.118.885-.236 1.298 0 .059-.177.177-.236.177h-1.18c-.118 0-.236-.06-.236-.177-.059-.413-.177-.767-.236-1.18-.059-.295 0-.354.295-.354zm1.475-.825c-1.062.236-2.005-.06-2.89-.649a4.194 4.194 0 0 1-1.592-2.064c-.118-.413-.354-.767-.65-1.12-.648-.767-1.002-1.71-.943-2.713 0-.354.06-.708.413-.944.06 0 .06-.118.06-.177v-.708c1.591.59 3.243.944 4.894.944 1.71.059 3.303-.295 4.895-.944v.354c0 .236 0 .531.236.767.177.236.236.53.236.826.059 1.061-.295 1.946-.944 2.712-.236.354-.472.708-.649 1.12-.59 1.357-1.533 2.3-3.066 2.596zm-6.252-9.26c1.534-.648 3.067-1.12 4.66-1.238 2.24-.177 4.363.354 6.369 1.239-3.716 1.71-7.313 1.71-11.029 0zm16.808 15.806c-.118.118-.236.236-.413.354l-.53.177c-1.829.59-3.716.825-5.603 1.002-1.003.118-2.005.118-3.008.177-.059 0-.118.06-.177.06h-3.007c-.118-.06-.236-.06-.354-.06-.944-.059-1.887-.059-2.831-.177a56.682 56.682 0 0 1-3.126-.413 16.042 16.042 0 0 1-2.89-.766c-.176-.118-.412-.177-.471-.413V20.7c.059-.295.059-.59.118-.826.295-1.592.825-3.125 2.005-4.305a3.99 3.99 0 0 1 1.533-1.061c1.298-.531 2.536-1.062 3.775-1.593.236.826.412 1.652.648 2.418.59 2.182 1.593 4.246 2.772 6.193l.118.118c.177.235.295.235.472 0 .236-.354.472-.767.708-1.18 1.356-2.3 2.182-4.777 2.771-7.313 0-.059 0-.118.06-.236 1.415.65 2.89 1.239 4.245 1.947 1.239.648 1.947 1.71 2.418 2.948.413.885.65 1.828.708 2.772 0 .059.06.118.06.177v.236z"/>
            <path fill="#FFF" d="M10.792 2.713c.118.059.236.177.295.236a.614.614 0 0 0 .944 0c.059-.118.177-.177.295-.236.648-.295 1.356-.53 2.005-.826.059 0 .118-.059.177-.118V1.71h-2.595v.295h-.767c-.059-.059-.059-.177 0-.295H8.551v.06c.118.058.177.117.236.117.649.295 1.357.53 2.005.826zM21.172 18.282h-2.595v.295h-.767c0-.354 0-.354-.413-.354H15.156v.06c.06.058.118.117.177.117.708.295 1.416.53 2.064.826.118 0 .236.059.295.177.295.294.708.353 1.003 0a.814.814 0 0 1 .236-.177c.648-.295 1.356-.531 2.064-.826.059-.059.118-.118.177-.118 0 .059 0 0 0 0z"/>
            <path fill="#3C3C3C" d="M21.997 17.81c-.471-1.238-1.18-2.3-2.418-2.948-1.356-.708-2.83-1.298-4.246-1.947-.059.118-.059.177-.059.236-.59 2.536-1.415 5.013-2.771 7.313-.236.413-.472.826-.708 1.18-.177.235-.295.235-.472 0l-.118-.118c-1.18-1.947-2.182-4.01-2.772-6.193-.236-.766-.412-1.592-.648-2.418-1.239.531-2.477 1.062-3.775 1.593a3.99 3.99 0 0 0-1.533 1.061c-1.18 1.18-1.71 2.713-2.005 4.305-.06.236-.06.531-.118.826v.236c.059.236.295.295.472.413.943.354 1.887.59 2.89.766 1.06.177 2.063.295 3.125.413.944.118 1.887.118 2.83.177.119 0 .237 0 .355.06h3.007c.06 0 .118-.06.177-.06 1.003-.059 2.005-.059 3.008-.177 1.887-.177 3.774-.413 5.603-1.002.176-.06.353-.118.53-.177.177-.118.295-.236.413-.354v-.236c0-.059-.059-.118-.059-.177a7.698 7.698 0 0 0-.708-2.772zm-1.002.59c-.708.295-1.416.53-2.064.826a.814.814 0 0 0-.236.177c-.295.353-.708.294-1.003 0a.324.324 0 0 0-.295-.177c-.648-.295-1.356-.531-2.064-.826-.059 0-.118-.059-.177-.118v-.059H17.397c.413 0 .413 0 .413.354h.767v-.295h2.595s0 .059.059.059c-.118-.059-.177 0-.236.059zM11.5 3.538c2.005 0 3.951.531 5.78 1.357.176-.295.176-.59.176-.885-.059-.53-.353-1.002-.707-1.415-1.003-1.12-2.241-1.77-3.716-2.123-.354-.06-.648-.118-1.002-.177h-1.062c-.059.059-.118.059-.177.059-1.533.177-2.89.767-4.069 1.828-.53.472-.944.944-1.12 1.592-.118.354-.118.767.118 1.12C7.549 4.01 9.495 3.539 11.5 3.539zM8.551 1.71h2.595c-.059.118-.059.236 0 .295h.767V1.71h2.595v.06c-.06.058-.118.117-.177.117-.649.295-1.357.53-2.005.826-.118.059-.236.118-.295.236a.614.614 0 0 1-.944 0c-.059-.06-.177-.177-.295-.236-.648-.295-1.356-.53-2.005-.826-.059 0-.118-.059-.236-.118V1.71z"/>
            <path fill="#3C3C3C" d="M15.274 11.854c.177-.413.413-.767.65-1.12.648-.767 1.002-1.652.943-2.713 0-.295-.06-.59-.236-.826-.236-.236-.236-.53-.236-.767v-.354c-1.592.65-3.185 1.003-4.895.944-1.651 0-3.303-.354-4.895-.944v.708c0 .059 0 .177-.059.177-.354.236-.413.59-.413.944-.059 1.002.295 1.946.944 2.712.295.354.53.708.649 1.12A4.194 4.194 0 0 0 9.318 13.8c.885.59 1.828.885 2.89.649 1.533-.295 2.477-1.239 3.066-2.595z"/>
            <path fill="#3C3C3C" d="M10.615 3.951c-1.592.118-3.125.59-4.659 1.239 3.716 1.71 7.313 1.71 11.029 0-2.006-.885-4.129-1.416-6.37-1.239zM10.438 18.99c.354.648.65 1.297 1.003 1.887h.118l1.062-1.946v-.177c-.118-.413-.177-.826-.295-1.298-.06-.118-.118-.235-.236-.235h-1.062c-.177 0-.236.058-.295.235-.118.413-.177.826-.295 1.239-.059.177-.059.236 0 .295zM10.674 16.808c0 .118.118.177.236.177h1.18c.059 0 .236-.118.236-.177.118-.413.177-.826.236-1.298.059-.177-.06-.236-.236-.236h-1.593c-.295 0-.354.06-.295.354.06.413.177.767.236 1.18z"/>
        </g>
    </g>
</svg>
