<svg xmlns="http://www.w3.org/2000/svg" width="25" height="24" viewBox="0 0 25 24">
    <g fill="none" fill-rule="evenodd">
        <path d="M1 0h24v24H1z"/>
        <path fill="#4A4A4A" fill-rule="nonzero" d="M14.31 4a1.72 1.72 0 0 1 1.76 1.66v2.21h5.17c.463.002.91.176 1.25.49A1.6 1.6 0 0 1 23 9.54v9.34a1.14 1.14 0 0 1-.73 1 1.44 1.44 0 0 1-.46.12 1.23 1.23 0 0 1-.84-.33l-2.13-2h-7.15A1.72 1.72 0 0 1 9.93 16v-2.19H7.09L5 15.8a1.25 1.25 0 0 1-.84.33 1.22 1.22 0 0 1-.43-.13A1.12 1.12 0 0 1 3 15V5.66A1.72 1.72 0 0 1 4.76 4h9.55zm6.88 5.63h-9.45v6.33l7.39.04a1.19 1.19 0 0 1 .84.33l1.22 1.15V9.63zm-6.93-3.87H4.81v7.82L6 12.42c.23-.21.529-.328.84-.33h3.09V9.53a1.72 1.72 0 0 1 1.76-1.66h2.57V5.76z"/>
    </g>
</svg>
