<svg xmlns="http://www.w3.org/2000/svg" width="25" height="24" viewBox="0 0 25 24">
    <g fill="none" fill-rule="evenodd">
        <path d="M1 0h24v24H1z"/>
        <path fill="#4A4A4A" fill-rule="nonzero" d="M13 4c2.73 0 10 1.83 10 4.55 0 1.82-2.73 4.54-2.73 4.54l.91 2.73S22 19.46 13 19.46s-8.18-3.64-8.18-3.64l.91-2.73S3 10.48 3 8.55C3 5.83 10.27 4 13 4zm5.66 10H7.34l-.71 2.12c.18.4 1.54 1.52 6.37 1.52s6.19-1.12 6.37-1.52L18.66 14zM13 5.82c-2.78 0-7.7 1.67-8.18 2.77A7.75 7.75 0 0 0 7 11.78l.4.4h11.22l.38-.37a8.63 8.63 0 0 0 2.18-3.22c-.5-1.1-5.4-2.77-8.18-2.77zm-.04.91a.91.91 0 0 1 .91.91 1 1 0 0 1-.05.23 1.8 1.8 0 0 1 1 1.59A1.83 1.83 0 0 1 13 11.28a1.83 1.83 0 0 1-1.9-1.82 1.8 1.8 0 0 1 1-1.59 1 1 0 0 1-.05-.23.91.91 0 0 1 .91-.91z"/>
    </g>
</svg>
