<svg xmlns="http://www.w3.org/2000/svg" width="20" height="20" viewBox="0 0 20 20">
    <g fill="none" fill-rule="evenodd">
        <path fill="none" d="M-2-2h24v24H-2z"/>
        <g fill="#4A4A4A" fill-rule="nonzero">
            <path d="M16.89 4.1h-.54V2.954C16.35 1.326 14.954 0 13.24 0H6.712c-1.714 0-3.11 1.326-3.11 2.955V4.1H3.11C1.396 4.1 0 5.426 0 7.055v4.767c0 1.629 1.396 2.955 3.11 2.955h.488v3.747c0 .813.698 1.476 1.552 1.476h9.643c.855 0 1.552-.663 1.552-1.476v-3.747h.546c1.713 0 3.109-1.326 3.109-2.955V7.055c0-1.63-1.396-2.956-3.11-2.956zM4.776 2.954c0-1.011.868-1.836 1.932-1.836h6.525c1.064 0 1.932.825 1.932 1.836V4.1H4.775V2.955zm10.393 15.578c0 .194-.17.356-.375.356H5.15a.369.369 0 0 1-.375-.356v-6.18h10.393v6.18zm3.655-6.707c0 1.011-.868 1.836-1.932 1.836h-.541v-1.31h.776a.572.572 0 0 0 .589-.56c0-.31-.262-.559-.589-.559H2.734a.572.572 0 0 0-.588.56c0 .31.261.56.588.56h.868v1.31H3.11c-1.064 0-1.932-.826-1.932-1.837V7.059c0-1.011.868-1.836 1.932-1.836h13.782c1.064 0 1.932.825 1.932 1.836v4.767z"/>
            <path d="M6.543 14.286h6.914c.302 0 .543-.212.543-.476 0-.265-.241-.477-.543-.477H6.543c-.302 0-.543.212-.543.477 0 .264.245.476.543.476zM13.461 15.238H6.543c-.302 0-.543.212-.543.476 0 .265.241.476.543.476h6.914c.302 0 .543-.211.543-.476 0-.264-.241-.476-.539-.476zM13.461 17.143H6.543c-.302 0-.543.211-.543.476s.241.476.543.476h6.914c.302 0 .543-.211.543-.476s-.241-.476-.539-.476zM16.504 6.667h-1.008c-.275 0-.496.846-.496 1.904 0 1.059.22 1.905.496 1.905h1.008c.275 0 .496-.846.496-1.905 0-1.058-.22-1.904-.496-1.904z"/>
        </g>
    </g>
</svg>
