<svg xmlns="http://www.w3.org/2000/svg" width="24" height="24" viewBox="0 0 24 24">
    <g fill="none" fill-rule="evenodd">
        <path d="M0 24h24V0H0z"/>
        <path fill="#4A4A4A" fill-rule="nonzero" d="M12 22c5.523 0 10-4.477 10-10S17.523 2 12 2A10 10 0 0 0 2 12c0 5.523 4.477 10 10 10zm.06-1.82H12a8.17 8.17 0 0 1-.253-16.317L12 3.85a8.17 8.17 0 0 1 5.82 13.91 8.1 8.1 0 0 1-5.76 2.42zM12 9.29c.33.005.648-.125.88-.36a1.26 1.26 0 0 0 .37-.89 1.34 1.34 0 0 0-.36-.89 1.31 1.31 0 0 0-.89-.36 1.27 1.27 0 0 0-.89.36 1.31 1.31 0 0 0-.36.89c.001.332.13.65.36.89.237.234.557.363.89.36zm.97 7.77v-6.04h-1.95v6.04h1.95z"/>
    </g>
</svg>
