<svg xmlns="http://www.w3.org/2000/svg" xmlns:xlink="http://www.w3.org/1999/xlink" width="148" height="198" viewBox="0 0 148 198">
    <defs>
        <rect id="a" width="148" height="198" rx="6"/>
    </defs>
    <g fill="none" fill-rule="evenodd">
        <mask id="b" fill="#fff">
            <use xlink:href="#a"/>
        </mask>
        <use fill="#F5F5F5" xlink:href="#a"/>
        <path fill="#321B63" fill-rule="nonzero" d="M148 151.73V202a6 6 0 0 1-6 6H6a6 6 0 0 1-6-6v-51.273C16.904 134.11 43.539 125 73.5 125c30.56 0 57.657 9.478 74.5 26.73z" mask="url(#b)"/>
        <path fill="#EFAEAE" fill-rule="nonzero" d="M73.5 116.494c20.586 0 39.5-29.304 39.5-55.15C113 35.495 94.086 19 73.5 19S34 35.496 34 61.343c0 25.847 18.914 55.151 39.5 55.151z" mask="url(#b)"/>
    </g>
</svg>
