<svg xmlns="http://www.w3.org/2000/svg" width="251" height="79" viewBox="0 0 251 79">
    <g fill="#FFF" fill-rule="nonzero">
        <path d="M65.934 69.856c-17.082 7.367-38.116-2.783-46.978-22.663-7.353-16.503-4.003-34.517 7.113-44.38.203-.213.393-.43.6-.641C9.973 9.077-1.631 25.686.562 43.499c2.673 21.732 20.52 37.824 43.658 35.068 10.05-1.194 21.248-6.177 28.354-12.713a29.038 29.038 0 0 1-6.64 4.002z"/>
        <path d="M22.73 14.336S28.578-1.471 48.798.11c16.55 1.295 33.133 17.883 32.173 40.216-.854 19.958-17.318 25.979-17.318 25.979s7.198-10.273.85-29.43c-1.872-5.643-8.583-16.197-19.054-21.17-12.421-5.902-22.72-1.37-22.72-1.37zM132.905 6.88c-2.146-.291-4.484-.444-7.041-.444H94.926v67.392h30.938c1.54 0 3.16-.113 4.848-.323l23.033-34.8-20.84-31.824zm-2.765 50.19c-1.84.966-4.935 1.448-9.286 1.448h-5.103v-36.82h5.195c5.393 0 9.255 1.318 11.584 3.953 2.328 2.636 3.494 7.524 3.494 14.665 0 5.395-.521 9.294-1.563 11.699-1.042 2.406-2.484 4.09-4.32 5.055zM244.881 11.813c-3.754-3.584-9.4-5.378-16.94-5.378h-24.687l-9.928 15.447v33.912l11.91 18.033h9.006V48.82h11.4c8.397 0 14.643-1.915 18.734-5.746 4.09-3.83 6.137-9.148 6.137-15.952 0-6.62-1.878-11.722-5.632-15.309zm-17.077 21.262c-1.624 1.394-4.443 2.091-8.459 2.091h-5.102V20.134h5.931c3.89 0 6.543.736 7.952 2.207 1.41 1.47 2.115 3.263 2.115 5.379 0 2.175-.813 3.96-2.437 5.355z"/>
        <path d="M180.824 39.078L201.41 7.046h-21.235l-11.957 21.358-12.29-21.358h-21.456l20.735 31.662-22.841 34.508h21.782l13.65-22.207 13.648 22.207h21.923z"/>
    </g>
</svg>
