<svg xmlns="http://www.w3.org/2000/svg" width="25" height="24" viewBox="0 0 25 24">
    <path fill="#4A4A4A" fill-rule="nonzero" stroke="#4A4A4A" stroke-width=".5" d="M13.41 2.392c-.615-.066-1.05.656-.711 1.164.007.01.015.017.024.025l1.262 1.495-1.164.931a.51.51 0 0 0-.037.025.662.662 0 0 0-.134.698c.093.213.309.368.563.368h.968a3.132 3.132 0 0 0 3.113 2.745 3.133 3.133 0 0 0 3.137-3.064v-.012a.41.41 0 0 0 0-.061V5.199a.41.41 0 0 0 0-.062V3.495a.39.39 0 0 0-.355-.392l-6.654-.71h-.013zm0 .797l6.237.65v.906h-4.914L13.409 3.19zM8.03 4.745a.794.794 0 0 0-.148.012h-.036a.345.345 0 0 0-.037.013l-4.73 1.948a.846.846 0 0 0-.577.368c-.139.228-.137.467-.11.662l.012.012 1.177 5.76c.003.001 0 .009 0 .012.029.153.107.305.22.417.017.03.037.06.062.085L7.784 18.3l.013.012c.353.354.83.552 1.299.552.44 0 .864-.164 1.2-.454l1.471-1.274v4.473c0 .216.176.392.392.392h1.165a.396.396 0 0 0 .343 0h7.904a.393.393 0 0 0 .392-.392v-8.346-.012a2.528 2.528 0 0 0-.416-1.458v-.013c-.005-.007-.008-.016-.013-.024a.391.391 0 0 0-.134-.172 2.6 2.6 0 0 0-2.023-.956h-4.51c-.774 0-1.683.357-2.254.834l-.013.012-3.406 3.052-.527-.54a.65.65 0 0 0 .122-.11.735.735 0 0 0 .147-.613L7.76 7.392V7.38h-.012a.806.806 0 0 0-.32-.515 1.004 1.004 0 0 0-.563-.16H5.186l2.831-1.163 1.324 6.654a.394.394 0 0 0 .772-.16L8.777 5.334c-.072-.361-.403-.59-.748-.588zm6.654.784h4.963v.785h-5.024a.399.399 0 0 0-.16 0h-.772l.98-.772.013-.013zm.294 1.569h4.632a2.318 2.318 0 0 1-2.316 1.96 2.318 2.318 0 0 1-2.316-1.96zM3.275 7.49h3.59c.081 0 .118.022.123.025v.012l1.164 5.846H4.341L3.164 7.625h.012c-.007-.058-.003-.078 0-.098a.414.414 0 0 0 .074-.025l.025-.012zm11.593 3.922h3.443l-5.76 7.169v-2.304a.39.39 0 0 0-.649-.294l-2.12 1.838a.985.985 0 0 1-.686.257c-.232 0-.527-.118-.723-.306l-.013-.012-3.296-3.603H7.71L8.9 15.333a.392.392 0 0 0 .539.013l3.676-3.285c.002-.001.01.002.012 0 .374-.306 1.263-.65 1.74-.65zm4.448 0h.061c.52 0 .978.196 1.3.514l-7.353 9.29h-.773V19.83l6.765-8.42zm1.777 1.238c.055.183.092.378.086.588v7.978h-6.85l6.764-8.566z"/>
</svg>
