<svg xmlns="http://www.w3.org/2000/svg" width="16" height="20" viewBox="0 0 16 20">
    <g fill="none" fill-rule="evenodd">
        <path d="M-4-2h24v24H-4z"/>
        <path fill="#4A4A4A" fill-rule="nonzero" d="M3.22 20A3.25 3.25 0 0 1 0 16.74V3.23A3.26 3.26 0 0 1 3.22 0H10.53a.9.9 0 0 1 .65.27s4.24 4.22 4.51 4.5a1 1 0 0 1 .27.64v11.33A3.25 3.25 0 0 1 12.7 20H3.22zm0-18A1.26 1.26 0 0 0 2 3.23v13.51c0 .68.54 1.238 1.22 1.26h9.48a1.25 1.25 0 0 0 1.3-1.26V6h-4V2H3.22zm1.42 10.5v.38a1.14 1.14 0 0 1 .9-.44c.178-.004.356.03.52.1a1.31 1.31 0 0 1 .68.74 1.56 1.56 0 0 1 0 1.1 1.33 1.33 0 0 1-.68.74 1.27 1.27 0 0 1-.52.11 1.13 1.13 0 0 1-.54-.12 1 1 0 0 1-.39-.31v1.49H4V12.5h.64zm1.57 1.33a.87.87 0 0 0-.06-.32.78.78 0 0 0-.17-.26.76.76 0 0 0-.25-.18.81.81 0 0 0-.63-.01.76.76 0 0 0-.25.18.78.78 0 0 0-.17.26.87.87 0 0 0-.06.32.79.79 0 0 0 .06.32.78.78 0 0 0 .17.26.64.64 0 0 0 .25.18c.2.094.43.094.63 0a.64.64 0 0 0 .25-.18.78.78 0 0 0 .17-.26.79.79 0 0 0 .06-.31zm3.06 1.33v-.38a.94.94 0 0 1-.38.33 1.14 1.14 0 0 1-.52.12 1.26 1.26 0 0 1-.51-.11 1.33 1.33 0 0 1-.41-.29 1.79 1.79 0 0 1-.27-.44 1.47 1.47 0 0 1-.1-.56 1.45 1.45 0 0 1 .37-.99 1.33 1.33 0 0 1 .41-.29 1.12 1.12 0 0 1 .51-.11c.18 0 .356.037.52.11a.85.85 0 0 1 .38.32v-1.51h.63v3.8h-.63zm-1.56-1.33a.79.79 0 0 0 .06.32.78.78 0 0 0 .17.26.64.64 0 0 0 .25.18c.2.094.43.094.63 0a.64.64 0 0 0 .25-.18.78.78 0 0 0 .17-.26.79.79 0 0 0 .06-.32.87.87 0 0 0-.06-.32.78.78 0 0 0-.17-.26.76.76 0 0 0-.25-.18.81.81 0 0 0-.63-.01.76.76 0 0 0-.25.18.78.78 0 0 0-.17.26.87.87 0 0 0-.06.33zm3.51-1.33h.71v.5h-.71v2.13h-.63V13h-.4v-.5h.4v-.15a1.33 1.33 0 0 1 .07-.47 1 1 0 0 1 .21-.34.83.83 0 0 1 .32-.2c.13-.05.27-.074.41-.07a.9.9 0 0 1 .24 0l.17.05v.56a.59.59 0 0 0-.14-.06h-.18a.44.44 0 0 0-.47.52v.16z"/>
    </g>
</svg>
