<svg xmlns="http://www.w3.org/2000/svg" width="22" height="22" viewBox="0 0 22 22">
    <g fill="#4A4A4A" fill-rule="nonzero">
        <path d="M2.75.917h7.333V13.75H.917v-11c0-1.013.82-1.833 1.833-1.833zm5.5 1.833h-5.5v9.167h5.5V2.75zM11.917 8.25h9.166v11c0 1.013-.82 1.833-1.833 1.833h-7.333V8.25zm1.833 1.833v9.167h5.5v-9.167h-5.5zM11.917.917h7.333c1.013 0 1.833.82 1.833 1.833v3.667h-9.166v-5.5zM13.75 2.75v1.833h5.5V2.75h-5.5zM.917 15.583h9.166v5.5H2.75A1.833 1.833 0 0 1 .917 19.25v-3.667zm1.833 1.834v1.833h5.5v-1.833h-5.5z"/>
    </g>
</svg>
