<svg xmlns="http://www.w3.org/2000/svg" width="20" height="20" viewBox="0 0 20 20">
    <g fill="none" fill-rule="nonzero">
        <path d="M-2-2h24v24H-2z"/>
        <path fill="#4A4A4A" d="M.949 19.987a.935.935 0 0 1-.67-.277.946.946 0 0 1-.263-.846l.954-5.112a.948.948 0 0 1 .26-.495L13.348 1.139a3.89 3.89 0 0 1 5.501 5.501L6.732 18.757a.953.953 0 0 1-.496.26l-5.114.955a.902.902 0 0 1-.173.015zm1.83-5.598l-.645 3.464 3.465-.645 9.622-9.623-2.818-2.819L2.78 14.39zM16.1 1.896a1.976 1.976 0 0 0-1.409.584l-.948.946 2.819 2.819.947-.947a1.992 1.992 0 0 0-1.41-3.402z"/>
    </g>
</svg>
