<svg xmlns="http://www.w3.org/2000/svg" width="18" height="19" viewBox="0 0 18 19">
    <g fill="none" fill-rule="evenodd">
        <path d="M-3-3h25v25H-3z"/>
        <path fill="#4A4A4A" d="M16.748 16.163l.002.008-1.208.771-.747.484-.003-.004-.007.004-3.77-5.914H4.96V4.056A2.196 2.196 0 0 1 6.125 0 2.196 2.196 0 0 1 7.29 4.056v2.1h5.599v2.335H7.292v.686h5.003l3.198 5.018 1.283-.831L18 15.352l-1.252.811zm-10.349.89a4.46 4.46 0 0 0 4.454-4.435l1.493 2.341A6.403 6.403 0 0 1 6.398 19 6.403 6.403 0 0 1 0 12.592 6.41 6.41 0 0 1 4.181 6.58v2.147a4.464 4.464 0 0 0-2.237 3.865 4.464 4.464 0 0 0 4.455 4.462z"/>
    </g>
</svg>
