<svg xmlns="http://www.w3.org/2000/svg" width="25" height="24" viewBox="0 0 25 24">
    <g fill="none" fill-rule="evenodd" transform="translate(1)">
        <path fill="none" d="M0 0h24v24H0z"/>
        <rect width="10.5" height="10.5" x="1.75" y="2.75" stroke="#4A4A4A" stroke-width="1.5" rx="1"/>
        <path fill="#4A4A4A" fill-rule="nonzero" d="M8.294 9.193a2.734 2.734 0 1 0-2.387 0A4.1 4.1 0 0 0 3 13.115h.911a3.19 3.19 0 0 1 6.379 0h.91a4.1 4.1 0 0 0-2.906-3.922zM5.278 6.737a1.822 1.822 0 1 1 3.645 0 1.822 1.822 0 0 1-3.645 0z"/>
        <rect width="7" height="2" x="15" y="2" fill="#4A4A4A" fill-rule="nonzero" rx=".5"/>
        <rect width="7" height="2" x="15" y="6" fill="#4A4A4A" fill-rule="nonzero" rx=".5"/>
        <rect width="7" height="2" x="15" y="10" fill="#4A4A4A" fill-rule="nonzero" rx=".5"/>
        <rect width="21" height="2" x="1" y="16" fill="#4A4A4A" fill-rule="nonzero" rx=".5"/>
        <rect width="21" height="2" x="1" y="20" fill="#4A4A4A" fill-rule="nonzero" rx=".5"/>
    </g>
</svg>
