<svg xmlns="http://www.w3.org/2000/svg" width="24" height="24" viewBox="0 0 24 24">
    <g fill="none" fill-rule="evenodd">
        <path d="M0 0h24v24H0z"/>
        <path d="M0 0h24v24H0z"/>
        <path fill="#4A4A4A" fill-rule="nonzero" d="M13.15 16.416a2.94 2.94 0 0 1 3.85 1.51h1.07l-.06.09a1 1 0 1 1 0 1.94h-.93a2.88 2.88 0 0 1-2 2 2.92 2.92 0 0 1-3.59-2H2v-1.94l9.64-.09a2.89 2.89 0 0 1 1.51-1.51zm1.17.93l-.152.005a1.76 1.76 0 1 0 1.902 1.735h.01a1.74 1.74 0 0 0-1.76-1.74zm4.115-6.496l.065.166H22v2h-3.49a2.93 2.93 0 0 1-5.438.18l-.072-.18H4a1 1 0 0 1-.117-1.994L4 11.016h9a2.89 2.89 0 0 1 1.77-1.77 2.93 2.93 0 0 1 3.665 1.604zm-2.635-.614a1.75 1.75 0 0 0-.203 3.491l.143.009.02.01a1.75 1.75 0 0 0 1.752-1.58l.008-.15-.003-.144a1.75 1.75 0 0 0-1.717-1.636zM10.01 2a2.93 2.93 0 0 1 2.597 1.572l.083.174H20a1 1 0 1 1 .122 1.962L20 5.686h-7.17a2.92 2.92 0 0 1-5.577.17l-.053-.17H2v-1.94h5.33A2.93 2.93 0 0 1 10.01 2zM10 3.166a1.75 1.75 0 0 0-1.734 1.6l-.006.15.006.15A1.75 1.75 0 1 0 10 3.166z"/>
    </g>
</svg>
